<svg xmlns="http://www.w3.org/2000/svg" width="84" height="102" viewBox="0 0 84 102">
  <g id="doc_" data-name="doc " transform="translate(0.48)">
    <rect id="Rectangle_13556" data-name="Rectangle 13556" width="84" height="102" rx="5" transform="translate(-0.48)" fill="#fff" opacity="0"/>
    <g id="noun_Document_2774775" transform="translate(12.166 10.684)">
      <g id="Group_29401" data-name="Group 29401">
        <path id="Path_55652" data-name="Path 55652" d="M13.049,80.79A5.054,5.054,0,0,1,8,75.741V5.049A5.054,5.054,0,0,1,13.049,0H45.87a9.463,9.463,0,0,1,6.095,2.525l14.1,14.1a9.458,9.458,0,0,1,2.525,6.1V75.741a5.054,5.054,0,0,1-5.049,5.049Zm0-75.741V75.741H63.543V22.722H50.92a5.054,5.054,0,0,1-5.049-5.049V5.049Zm37.87,3.57v9.054h9.054Z" transform="translate(-8)" fill="#9a74ff"/>
        <path id="Path_55653" data-name="Path 55653" d="M47.673,17.049H32.525a2.525,2.525,0,1,1,0-5.049H47.673a2.525,2.525,0,0,1,0,5.049Z" transform="translate(-17.377 3.148)" fill="#daa520" opacity="0.6"/>
        <path id="Path_55654" data-name="Path 55654" d="M20.525,22h30.3a2.525,2.525,0,0,1,0,5.049h-30.3a2.525,2.525,0,1,1,0-5.049Z" transform="translate(-5.377 5.772)" fill="#daa520" opacity="0.6"/>
        <path id="Path_55655" data-name="Path 55655" d="M20.525,32h30.3a2.525,2.525,0,0,1,0,5.049h-30.3a2.525,2.525,0,1,1,0-5.049Z" transform="translate(-5.377 8.395)" fill="#daa520" opacity="0.6"/>
        <path id="Path_55656" data-name="Path 55656" d="M20.525,42h30.3a2.525,2.525,0,1,1,0,5.049h-30.3a2.525,2.525,0,1,1,0-5.049Z" transform="translate(-5.377 11.018)" fill="#daa520" opacity="0.6"/>
        <path id="Path_55657" data-name="Path 55657" d="M20.525,52h30.3a2.525,2.525,0,0,1,0,5.049h-30.3a2.525,2.525,0,1,1,0-5.049Z" transform="translate(-5.377 13.642)" fill="#daa520" opacity="0.6"/>
      </g>
    </g>
  </g>
</svg>
