<svg xmlns="http://www.w3.org/2000/svg" width="25" height="25" viewBox="0 0 25 25">
  <g id="noun_Warning_8148" transform="translate(-27.273 -27.273)">
    <path id="Path_55663" data-name="Path 55663" d="M30.934,30.934a12.5,12.5,0,1,0,17.678,0A12.5,12.5,0,0,0,30.934,30.934Zm15.91,15.91a10,10,0,1,1,0-14.142A10,10,0,0,1,46.844,46.844Z" fill="#855bf5"/>
    <g id="Group_38701" data-name="Group 38701" transform="translate(38.222 32.005)">
      <path id="Path_55664" data-name="Path 55664" d="M47.609,36.249a1.53,1.53,0,0,1,1.174-.478,1.183,1.183,0,0,1,1.179.611,4.119,4.119,0,0,1,.3,1.76,13.1,13.1,0,0,1-.072,1.376l-.439,5.057a4,4,0,0,1-.307,1.385.808.808,0,0,1-.779.484.778.778,0,0,1-.771-.468,4.617,4.617,0,0,1-.307-1.422l-.33-4.914q-.092-1.437-.092-2.062A1.865,1.865,0,0,1,47.609,36.249Z" transform="translate(-47.16 -35.771)" fill="#855bf5"/>
      <path id="Path_55665" data-name="Path 55665" d="M49.8,61.267a1.573,1.573,0,0,1-1.079.411,1.611,1.611,0,0,1-1.092-.406,1.42,1.42,0,0,1-.468-1.133A1.522,1.522,0,0,1,48.7,58.612a1.524,1.524,0,0,1,1.1.444,1.457,1.457,0,0,1,.455,1.083A1.431,1.431,0,0,1,49.8,61.267Z" transform="translate(-47.16 -46.143)" fill="#855bf5"/>
    </g>
  </g>
</svg>
